<svg xmlns="http://www.w3.org/2000/svg" viewBox="0 0 594.69 594.69" xml:space="preserve"><circle cx="297.35" cy="297.35" r="297.35" fill="#ffa80d"/><path d="m297.35 297.35-239 176.9A297.39 297.39 0 0 1 0 297.35C0 134.23 134.23 0 297.35 0S594.7 134.23 594.7 297.35H297.35z" fill="#00c3ff"/><path d="M297.35 297.35 343.91 3.67c143.82 22.8 250.78 148.06 250.78 293.68 0 37.61-7.14 74.88-21.03 109.84L297.35 297.35zM297.35 297.35 429.4 563.77a297.395 297.395 0 0 1-132.05 30.93c-97.6 0-189.2-48.06-244.66-128.37l244.66-168.98z" fill="#00ffb0"/><path d="M297.35 533.6c-63.1 0-122.43-24.57-167.06-69.2-44.62-44.62-69.2-103.95-69.2-167.06s24.57-122.43 69.2-167.06c44.62-44.62 103.95-69.2 167.06-69.2s122.43 24.57 167.06 69.2c44.62 44.62 69.2 103.95 69.2 167.06s-24.57 122.43-69.2 167.06-103.96 69.2-167.06 69.2z" fill="#fff"/><path d="M297.35 76.09c29.88 0 58.85 5.85 86.11 17.37 26.34 11.14 50.01 27.1 70.34 47.43 20.33 20.33 36.29 43.99 47.43 70.34 11.53 27.26 17.37 56.23 17.37 86.11s-5.85 58.85-17.37 86.11c-11.14 26.34-27.1 50.01-47.43 70.34-20.33 20.33-43.99 36.29-70.34 47.43-27.26 11.53-56.23 17.37-86.11 17.37-29.88 0-58.85-5.85-86.11-17.37-26.34-11.14-50.01-27.1-70.34-47.43-20.33-20.33-36.29-43.99-47.43-70.34-11.53-27.26-17.37-56.23-17.37-86.11s5.85-58.85 17.37-86.11c11.14-26.34 27.1-50.01 47.43-70.34 20.33-20.33 43.99-36.29 70.34-47.43 27.25-11.52 56.22-17.37 86.11-17.37m0-30C158.59 46.09 46.1 158.58 46.1 297.34S158.58 548.6 297.35 548.6 548.6 436.11 548.6 297.35 436.11 46.09 297.35 46.09z" fill="#051226"/><circle cx="208.56" cy="308.7" r="38" fill="#00c3ff"/><path d="M208.56 282.7c14.34 0 26 11.66 26 26s-11.66 26-26 26-26-11.66-26-26 11.66-26 26-26m0-24c-27.61 0-50 22.39-50 50s22.39 50 50 50 50-22.39 50-50c0-27.62-22.39-50-50-50z" fill="#051226"/><circle cx="385.41" cy="308.7" r="38" fill="#00c3ff"/><path d="M385.41 282.7c14.34 0 26 11.66 26 26s-11.66 26-26 26-26-11.66-26-26 11.66-26 26-26m0-24c-27.61 0-50 22.39-50 50s22.39 50 50 50 50-22.39 50-50c0-27.62-22.39-50-50-50z" fill="#051226"/><path d="M371.18 427.6c0 8.19-33.05 14.82-73.83 14.82s-73.83-6.64-73.83-14.82" fill="none" stroke="#051226" stroke-width="20" stroke-linecap="round" stroke-miterlimit="10"/><path d="M313.53 243.24c-39.8 0-77.3-15.42-105.59-43.42-26.43-26.16-41.97-60.47-44.23-97.31 39.42-27.12 85.45-41.42 133.64-41.42 61.12 0 118.58 23 162.67 64.94-7.07 31.55-24.34 60.22-49.17 81.39-27.1 23.1-61.66 35.82-97.32 35.82z" fill="#00ffb0"/><path d="M297.35 76.09c30.16 0 59.39 5.95 86.86 17.7 21.63 9.25 41.43 21.74 59.04 37.23-7.34 25.11-21.97 47.79-42.14 64.99-24.38 20.79-55.49 32.23-87.59 32.23-35.82 0-69.58-13.88-95.03-39.08-21.74-21.52-35.3-49.17-39.02-79.08 35.25-22.28 75.68-33.99 117.88-33.99m0-30c-55.75 0-107.24 18.17-148.92 48.89 1 90.34 74.52 163.26 165.1 163.26 81.69 0 149.52-59.33 162.77-137.24-45.58-46.24-108.91-74.91-178.95-74.91z" fill="#051226"/><path d="M351.07 168.15c-29.83 0-57.94-11.55-79.15-32.52-18.47-18.27-29.86-41.84-32.71-67.32 18.92-4.79 38.43-7.21 58.13-7.21 54.81 0 107.5 18.89 149.65 53.44a113.153 113.153 0 0 1-35.34 35.95c-18.06 11.55-39.01 17.66-60.58 17.66z" fill="#ffa80d"/><path d="M297.35 76.09c46.63 0 91.61 14.6 129.05 41.52a98.114 98.114 0 0 1-22.83 20.23c-15.65 10.01-33.8 15.31-52.5 15.31-25.85 0-50.22-10.01-68.6-28.19-12.76-12.61-21.61-28.15-25.94-45.11a222.61 222.61 0 0 1 40.82-3.76m0-30c-25.69 0-50.48 3.87-73.83 11.03.83 69.74 57.62 126.02 127.55 126.02 50.56 0 94.25-29.42 114.89-72.07-44.58-40.37-103.72-64.98-168.61-64.98z" fill="#051226"/></svg>